<?xml version="1.0" encoding="UTF-8"?>
<svg id="_레이어_1" xmlns="http://www.w3.org/2000/svg" version="1.1" viewBox="0 0 512 512">
  <!-- Generator: Adobe Illustrator 30.5.1, SVG Export Plug-In . SVG Version: 2.1.4 Build 3)  -->
  <defs>
    <style>
      .st0 {
        fill: #231815;
      }

      .st1 {
        fill: #fff;
      }

      .st2 {
        isolation: isolate;
      }
    </style>
  </defs>
  <rect class="st0" width="512" height="512" rx="96" ry="96"/>
  <g>
    <path class="st1" d="M314.53,231.89c5.49,2.62,11.43,7.54,15.37,12.05l-23.64,25.35c5.74,12.9,2.54,26.91-6.87,35.76-9.89,9.3-24.95,9.63-35.56,3.09-12.18-7.51-16.09-20.64-12.44-35.28l-32.25-26.77c-8.85,6.13-18.67,6.99-28.14,2.22l-13.34,14.53c-2.15,3-11.74-6.97-12.72-8.83-1.39-2.62-1.41-2.84.53-5.81l8.39-8.57c2.27-2.32,3.29-5.05,2.29-8.1-4.41-13.48.03-27.07,11.27-34.6,10.56-7.08,24.42-6.8,35.25,1.65,9.73,7.59,12.35,20.14,8.58,33.12l32.22,25.14c8.37-2.79,18.96-7.13,28.42-1.05l22.65-23.87v-.03Z"/>
    <path class="st1" d="M366.51,204.34l-3.65,1.68c-2.99-.06-15.72-13.45-7.44-17.42l20.15-21.13,22.93-25.46c-4.47-11.1-3.93-22.94,3.87-32.07,6.26-7.32,16.37-12.82,27.61-10.55,18.78,3.79,29.75,23.83,22.09,41.71-6.61,15.43-24.34,21.35-40.06,15.05l-45.5,48.19h0Z"/>
    <path class="st1" d="M145.15,298.05l-31.35,34.15c5.06,17.52.62,35.34-15.78,41.6-10.42,3.98-23.44,1.78-31.41-5.66-8.12-7.58-10.7-18.35-8.26-28.79,2.06-8.83,8.76-17.07,18.14-20.86,7.2-2.91,15.16-.5,22.31-.47,7.77-5.99,14.45-14.15,21.06-21.09l8.91-9.35c2.58.03,5.13,1.48,7.66,4.36,4.7,1.34,7.61,3.38,8.73,6.12h0Z"/>
    <path class="st1" d="M366.51,204.34l-20.09,22-16.52,17.6c-4.74-.03-7.44-3.12-11.1-6.28-1.83-1.58-4.55-2.34-4.26-5.76l40.89-43.3c-2.09,4.28-.78,7,2.86,9.81,2.61,2.02,4.42,5.62,8.23,5.94h0Z"/>
    <path class="st1" d="M177.65,262.83l-32.5,35.22c-6.34-1.25-13.4-4.29-16.39-10.48,11.76-12.35,24.14-26.57,36.69-39.39-.05,3.06,1.83,4.41,3.79,6.24l8.41,8.41Z"/>
    <path class="st1" d="M382.54,341.42c-10.27,17.27-22.47,32.99-37.42,46.28l-18.83,16.74c-25.21,20.41-53.06,36.66-80.47,50.72-3.61-2.38-4.47-10.06-.09-11.64,2.89,2.93,5.51,1.73,7.84-3.6l55.61-85.45c4.42-4.27,7.62-8.89,9.61-13.86,6.78-8.23,13.68-15.84,18.77-25.48,11.58-21.95,18.49-45.16,22.56-69.62l2.92.63,20.01,89.21-.51,6.07h0Z"/>
    <path class="st1" d="M229.39,384.3l15.98,8.27c1.07.27,2.66.73,2.72,1.56.87,11.55.66,26.53.27,38.21,1,5.5.12,9.23-2.63,11.2l.09,11.64c-34.68-17.24-76.7-42.66-102.61-70.41-3.49-3.74-10.82-6.9-11.45-12.52l4.92-15.17.2-18.06c1.3-1.64,2.76-1.77,3.58.11l1.07,12.05c29.29,10.55,59.32,21.77,87.86,33.13h0Z"/>
    <path class="st1" d="M382.54,341.42c-1.66-2.12-1.83-4.11-2.35-6.51l-20.07-89.4c.63-3.77,1.75-5.29,4.31-8l51.33-54.23c2.33-2.47,4.68-5.04,8.68-3.18-3.33,51.56-15.59,117.09-41.89,161.33h0Z"/>
    <path class="st1" d="M245.73,443.53l-.36-50.96c26.11-12.72,55.83-30.64,73.42-51.96.78.41,1.13.92,1.12,1.38-.03.98-.76,2.16-1.38,3.12l-47,72.03c-7.7,11.8-13.99,23.28-23.66,34.57-.91-3.11-2.12-6.22-2.13-8.18h0Z"/>
    <path class="st1" d="M229.39,384.3c-.29,1.01-1.22,1.58-2.52,1.1l-88.21-32.39-.36-11.99c-.03-1.06-.93-1.53-1.41-2.01.02-2.21.92-3.66,2.43-5.15l15.66-15.47c16.86,29.31,45.04,50.72,74.41,65.91h0Z"/>
    <path class="st1" d="M239.78,58.57l.87,2.99c-32.99,33.04-66.5,65.59-100.52,97.66-2.97,1.51-5.3,3.39-7,5.65-2.58,1.07-5.23,3.11-9.25,3.26l-.9,14.31c-3.66-1.76-4.89-5.63-3.7-11.61-18.82-10.44-37.08-21.59-54.79-33.46l-1.28-2.67L239.78,58.57Z"/>
    <path class="st1" d="M128.98,241.89c1.27,3.22,4.45,10.15,1.21,13.52l-27.28,28.44-13.11,13.84c-11.73-33-18.43-65.92-22.06-100.39-2.12-20.16-4.26-39.13-4.13-58.57,1.46-1.08,2.85-.51,4.17,1.71l57.17,96.03c.66,3.46,2,5.26,4.02,5.42h0Z"/>
    <path class="st1" d="M248.27,57.49l124.72,52.95c3.04,1.68,2.8,3.23-.13,5.11l-113.39,6.01-12.78-2.51c-2.55.44-3.88-1.07-3.98-4.53l-.02-54.33c1.02-2.72,2.77-3.37,5.58-2.71h0Z"/>
    <path class="st1" d="M248.27,57.49c-.47.1-1.7-.1-2.11.19s-.77,1.55-.77,2.61v54.27l1.3,4.48-113.56,45.82c-.53.16-1.83-.88-1.51-1.2l27.66-26.74,29.16-27.81,27.82-26.45,23.51-24.1c3.49-1.5,5.31-2.43,8.49-1.08h0Z"/>
    <path class="st1" d="M246.69,119.05c9.02.53,17.86-.79,27.42-1.27l99.86-5-.99-2.34c1.06.45,2.47.28,3.71,1.67-3.08,8.19-3.14,16.43-2.07,25.72l-22.61,24.33-105.33-43.1h0Z"/>
    <path class="st1" d="M122.98,182.44c1.35,16.71,2.25,33.31,4.63,49.99l1.2,6.88c-.07.71-.12,1.83.17,2.57-.98,1.7-.8,3.3-.52,5.76l-64.85-108.92-.4-4.02,59.18,34.81c-1.58,5.35.31,9.46.59,12.93h0Z"/>
  </g>
  <g>
    <g class="st2">
      <g class="st2">
        <path class="st1" d="M145.97,487.89c.28.49.69.87,1.22,1.16.53.29,1.17.43,1.9.43,1.13,0,2.01-.33,2.66-1,.64-.67.96-1.55.96-2.66v-9.36h1.91v9.36c0,1.07-.23,2.01-.69,2.83-.46.82-1.11,1.45-1.94,1.89-.83.44-1.8.67-2.89.67s-2.02-.22-2.84-.65c-.83-.43-1.47-1.02-1.92-1.76-.45-.74-.69-1.58-.71-2.52h1.89c.02.59.18,1.12.46,1.61Z"/>
      </g>
      <g class="st2">
        <path class="st1" d="M165.61,476.67c.84.37,1.51.88,2.02,1.54.5.66.79,1.4.85,2.23h-1.94c-.11-.79-.5-1.44-1.18-1.94s-1.56-.76-2.65-.76-1.97.21-2.6.62-.94.95-.94,1.61c0,.49.15.9.45,1.23s.77.62,1.4.85c.63.24,1.48.47,2.56.7,1.74.37,3,.9,3.79,1.59.79.69,1.18,1.58,1.18,2.67,0,.84-.25,1.58-.76,2.21-.5.63-1.19,1.12-2.07,1.46-.88.34-1.85.51-2.92.51s-2.11-.19-3-.58c-.88-.38-1.59-.92-2.11-1.62-.53-.7-.82-1.51-.88-2.43h1.94c.1.89.52,1.61,1.27,2.16.75.55,1.72.83,2.91.83.71,0,1.34-.1,1.91-.31.56-.2,1-.49,1.31-.86.31-.37.47-.79.47-1.26,0-.53-.15-.97-.45-1.31-.3-.35-.77-.64-1.4-.89s-1.5-.48-2.6-.71c-1.68-.35-2.92-.85-3.72-1.51-.8-.66-1.2-1.57-1.2-2.74,0-.78.24-1.46.71-2.04s1.13-1.03,1.97-1.34c.84-.31,1.79-.47,2.86-.47s1.99.18,2.83.55Z"/>
      </g>
      <g class="st2">
        <path class="st1" d="M176.83,486.06v4.82h-1.91v-4.82l-5.65-9.59h2.14l4.54,7.83,4.68-7.83h2.03l-5.83,9.59Z"/>
      </g>
      <g class="st2">
        <path class="st1" d="M186.48,490.24c-1.15-.65-2.06-1.55-2.71-2.7-.65-1.15-.98-2.44-.98-3.87s.33-2.72.98-3.87c.65-1.15,1.56-2.05,2.71-2.7,1.15-.65,2.44-.97,3.87-.97,1.21,0,2.31.22,3.29.66.98.44,1.79,1.05,2.43,1.83.64.78,1.09,1.68,1.34,2.7h-1.93c-.31-1.04-.92-1.88-1.82-2.5s-1.99-.94-3.28-.94c-1.09,0-2.07.25-2.93.75-.86.5-1.54,1.19-2.03,2.06s-.74,1.87-.74,2.99.25,2.1.74,2.98,1.17,1.57,2.04,2.07,1.85.75,2.93.75c.88,0,1.68-.16,2.41-.48.73-.32,1.34-.75,1.83-1.3s.82-1.17,1-1.85h1.93c-.22,1.01-.65,1.92-1.31,2.74-.65.82-1.49,1.46-2.51,1.94-1.02.47-2.15.71-3.38.71-1.43,0-2.72-.32-3.87-.97Z"/>
        <path class="st1" d="M201.65,476.47v8.21c0,.96.18,1.8.53,2.53.35.73.86,1.29,1.53,1.69.67.4,1.45.6,2.35.6s1.68-.2,2.34-.6c.66-.4,1.17-.97,1.52-1.69.35-.73.53-1.57.53-2.53v-8.21h1.89v8.21c0,1.31-.26,2.46-.77,3.45-.52.99-1.25,1.75-2.2,2.29-.95.54-2.05.81-3.31.81s-2.37-.27-3.32-.81-1.69-1.31-2.21-2.29c-.52-.99-.77-2.14-.77-3.45v-8.21h1.89Z"/>
        <path class="st1" d="M224.73,490.88l-3.28-5.13c-.36.02-.63.04-.81.04h-3.51v5.09h-1.89v-14.42h5.4c1.2,0,2.23.19,3.1.57.87.38,1.53.92,1.99,1.62s.68,1.53.68,2.48c0,1.02-.26,1.9-.79,2.63-.53.73-1.29,1.27-2.29,1.62l3.62,5.51h-2.23ZM223.47,483.33c.71-.51,1.06-1.25,1.06-2.21s-.35-1.7-1.06-2.21-1.7-.77-2.97-.77h-3.37v5.94h3.37c1.27,0,2.26-.25,2.97-.76Z"/>
        <path class="st1" d="M239.22,476.47v1.67h-8.35v4.54h7.72v1.67h-7.72v4.86h8.51v1.67h-10.4v-14.42h10.24Z"/>
      </g>
    </g>
    <g class="st2">
      <g class="st2">
        <path class="st1" d="M266.78,476.47l-4.39,14.42h-1.91l-3.47-11.5-3.49,11.5h-1.91l-4.37-14.42h1.96l3.42,11.56,3.4-11.56h2.02l3.42,11.59,3.42-11.59h1.91Z"/>
      </g>
      <g class="st2">
        <path class="st1" d="M269.38,490.43c-.79-.47-1.4-1.11-1.84-1.93-.44-.82-.67-1.74-.67-2.76s.22-1.94.67-2.76c.44-.82,1.06-1.47,1.84-1.93.79-.47,1.67-.7,2.66-.7s1.87.23,2.65.7c.79.47,1.4,1.11,1.84,1.93.44.82.66,1.74.66,2.76,0,.34-.01.59-.04.76h-8.42c.1.9.45,1.64,1.05,2.21.61.58,1.36.86,2.26.86.68,0,1.29-.14,1.81-.42.52-.28.88-.64,1.07-1.07h1.89c-.29.9-.86,1.64-1.73,2.21-.86.57-1.88.86-3.04.86-.98,0-1.87-.23-2.66-.7ZM274.3,482.76c-.6-.57-1.36-.86-2.27-.86s-1.67.29-2.27.86c-.6.57-.95,1.31-1.04,2.22h6.64c-.11-.91-.46-1.65-1.06-2.22Z"/>
        <path class="st1" d="M282.78,490.61c-.64-.35-1.1-.77-1.39-1.26v1.53h-1.85v-14.87h1.85v6.1c.29-.49.75-.91,1.39-1.26.64-.35,1.39-.52,2.27-.52.96,0,1.83.23,2.6.7.77.47,1.38,1.12,1.83,1.94s.67,1.75.67,2.75-.22,1.93-.67,2.75c-.44.83-1.05,1.48-1.83,1.94-.77.47-1.64.7-2.6.7-.88,0-1.63-.17-2.27-.52ZM286.68,489.01c.52-.32.93-.77,1.21-1.35.29-.58.43-1.22.43-1.93s-.14-1.35-.43-1.93-.69-1.03-1.21-1.35c-.52-.32-1.12-.49-1.79-.49s-1.29.17-1.83.5-.95.78-1.25,1.35c-.3.57-.45,1.21-.45,1.92s.15,1.35.45,1.92c.3.57.72,1.02,1.25,1.35s1.14.5,1.83.5,1.27-.16,1.79-.49Z"/>
        <path class="st1" d="M302.76,476.47c1.63,0,3.04.3,4.21.9,1.18.6,2.08,1.44,2.7,2.53s.94,2.35.94,3.79-.31,2.7-.93,3.78-1.52,1.92-2.7,2.52c-1.18.6-2.59.9-4.22.9h-5.11v-14.42h5.11ZM307.13,487.73c1.04-.96,1.57-2.31,1.57-4.05s-.52-3.1-1.57-4.07c-1.04-.97-2.48-1.46-4.32-1.46h-3.28v11.02h3.28c1.84,0,3.28-.48,4.32-1.44Z"/>
      </g>
      <g class="st2">
        <path class="st1" d="M314.97,490.43c-.79-.47-1.4-1.11-1.84-1.93-.44-.82-.67-1.74-.67-2.76s.22-1.94.67-2.76c.44-.82,1.06-1.47,1.84-1.93.79-.47,1.67-.7,2.66-.7s1.87.23,2.65.7c.79.47,1.4,1.11,1.84,1.93.44.82.66,1.74.66,2.76,0,.34-.01.59-.04.76h-8.42c.1.9.45,1.64,1.05,2.21.61.58,1.36.86,2.26.86.68,0,1.29-.14,1.81-.42.52-.28.88-.64,1.07-1.07h1.89c-.29.9-.86,1.64-1.73,2.21-.86.57-1.88.86-3.04.86-.98,0-1.87-.23-2.66-.7ZM319.89,482.76c-.6-.57-1.36-.86-2.27-.86s-1.67.29-2.27.86c-.6.57-.95,1.31-1.04,2.22h6.64c-.11-.91-.46-1.65-1.06-2.22Z"/>
      </g>
      <g class="st2">
        <path class="st1" d="M334.26,480.59l-4.36,10.3h-1.96l-4.34-10.3h2.02l3.37,8.19,3.37-8.19h1.91Z"/>
      </g>
      <g class="st2">
        <path class="st1" d="M337.44,490.43c-.79-.47-1.4-1.11-1.85-1.93-.44-.82-.67-1.74-.67-2.76s.22-1.94.67-2.76c.44-.82,1.06-1.47,1.85-1.93.79-.47,1.67-.7,2.65-.7s1.87.23,2.66.7c.79.47,1.4,1.11,1.84,1.93.44.82.66,1.74.66,2.76,0,.34-.01.59-.04.76h-8.42c.1.9.45,1.64,1.05,2.21.61.58,1.36.86,2.26.86.68,0,1.29-.14,1.81-.42.52-.28.88-.64,1.07-1.07h1.89c-.29.9-.86,1.64-1.73,2.21-.86.57-1.88.86-3.04.86-.98,0-1.87-.23-2.65-.7ZM342.36,482.76c-.6-.57-1.36-.86-2.27-.86s-1.67.29-2.27.86c-.6.57-.95,1.31-1.04,2.22h6.64c-.11-.91-.46-1.65-1.06-2.22Z"/>
        <path class="st1" d="M347.6,490.88v-14.87h1.85v14.87h-1.85Z"/>
        <path class="st1" d="M359.8,481.04c.8.47,1.43,1.11,1.88,1.93.45.82.68,1.74.68,2.76s-.23,1.94-.68,2.76c-.45.82-1.08,1.47-1.88,1.93s-1.7.7-2.7.7-1.91-.23-2.71-.7-1.42-1.11-1.88-1.93c-.46-.82-.68-1.74-.68-2.76s.23-1.94.68-2.76,1.08-1.47,1.88-1.93c.8-.47,1.7-.7,2.71-.7s1.9.23,2.7.7ZM355.31,482.47c-.52.33-.93.78-1.22,1.35-.29.57-.44,1.21-.44,1.92s.15,1.35.44,1.92c.29.57.7,1.02,1.22,1.35.52.33,1.12.5,1.79.5s1.25-.17,1.78-.5.94-.78,1.22-1.35c.29-.57.43-1.21.43-1.92s-.14-1.35-.43-1.92c-.29-.57-.7-1.02-1.22-1.35s-1.12-.5-1.78-.5-1.27.17-1.79.5Z"/>
        <path class="st1" d="M367.98,490.61c-.64-.35-1.1-.77-1.39-1.26v5.9h-1.85v-14.67h1.85v1.53c.29-.49.75-.91,1.39-1.26.64-.35,1.39-.52,2.27-.52.96,0,1.83.23,2.6.7.77.47,1.38,1.12,1.83,1.94s.67,1.75.67,2.75-.22,1.93-.67,2.75c-.44.83-1.05,1.48-1.83,1.94-.77.47-1.64.7-2.6.7-.88,0-1.63-.17-2.27-.52ZM371.87,489.01c.52-.32.93-.77,1.21-1.35.29-.58.43-1.22.43-1.93s-.14-1.35-.43-1.93-.69-1.03-1.21-1.35c-.52-.32-1.12-.49-1.79-.49s-1.29.17-1.83.5-.95.78-1.25,1.35c-.3.57-.45,1.21-.45,1.92s.15,1.35.45,1.92c.3.57.72,1.02,1.25,1.35s1.14.5,1.83.5,1.27-.16,1.79-.49Z"/>
      </g>
    </g>
  </g>
</svg>