<?xml version="1.0" encoding="UTF-8"?>
<svg id="_레이어_1" data-name="레이어_1" xmlns="http://www.w3.org/2000/svg" version="1.1" viewBox="0 0 43.5 6">
  <!-- Generator: Adobe Illustrator 30.5.1, SVG Export Plug-In . SVG Version: 2.1.4 Build 3)  -->
  <defs>
    <style>
      .st0 {
        fill: #131d3e;
      }

      .st1 {
        fill: #285eab;
      }
    </style>
  </defs>
  <g>
    <path class="st0" d="M43.49,1.13v4.85s-1.4,0-1.4,0c-.27-.08-.51-.19-.75-.35-.3-.15-.54-.34-.8-.56l-3.44-2.86-1.33-1.1v4.86s-1.34,0-1.34,0V0s1.29,0,1.29,0c.21,0,.4.08.58.17l.65.43,3.88,3.19,1.32,1.1V0c.18-.02.36.03.5.16l.67.6c.1.09.12.21.17.37Z"/>
    <path class="st0" d="M32.22,1.15v4.83s-1.33,0-1.33,0V0c.23-.02.43.06.58.21l.49.44c.14.13.23.28.27.5Z"/>
  </g>
  <g>
    <path class="st0" d="M23.47,0c-.01.09.06.12.12.18l.75.77h-2.5c-.55,0-.97.29-.97.83v2.46c0,.41.33.79.77.79h4.63c.44,0,.78-.35.77-.76v-.66s-3.88,0-3.88,0c.23-.44.55-.93,1.03-.93h4.19s0,1.64,0,1.64c0,.63-.37,1.17-.93,1.45-.29.12-.57.21-.9.21h-5.17c-.95,0-1.85-.69-1.85-1.63V1.77c-.01-.62.3-1.16.84-1.47.31-.18.66-.28,1.03-.28h2.06Z"/>
    <path class="st1" d="M24.35.96l-.75-.77c-.06-.06-.14-.1-.12-.18h3.32c.3,0,.58.13.76.37l.74.98c-.19.03-.3-.08-.44-.15-.3-.15-.65-.24-.99-.24h-2.5Z"/>
  </g>
  <path class="st0" d="M6.09,5.06c.51,0,.84.49,1.07.94H1.78c-.9,0-1.77-.62-1.77-1.54V.01C.19,0,.38.07.52.21l.64.6c.12.11.19.28.19.44v3.12c0,.36.3.67.67.68h4.07Z"/>
  <path class="st0" d="M15.58,6h-5.1c-.91,0-1.81-.68-1.81-1.63V1.68c0-.98.94-1.67,1.87-1.67h5.08c.92,0,1.83.7,1.84,1.7v2.52c0,.67-.34,1.27-.95,1.55-.29.13-.58.22-.93.22ZM15.36,5.04c.45,0,.76-.38.76-.78V1.76c0-.4-.31-.78-.75-.79l-4.45-.02c-.48,0-.91.31-.91.78v2.55c0,.4.33.76.76.76h4.59Z"/>
</svg>