<?xml version="1.0" encoding="UTF-8"?>
<svg id="_레이어_1" data-name="레이어_1" xmlns="http://www.w3.org/2000/svg" version="1.1" viewBox="0 0 1761.5 230">
  <!-- Generator: Adobe Illustrator 30.5.1, SVG Export Plug-In . SVG Version: 2.1.4 Build 3)  -->
  <defs>
    <style>
      .st0 {
        fill: #1d7ea1;
      }

      .st1 {
        fill: #23799a;
      }

      .st2 {
        fill: #1c2d45;
      }

      .st3 {
        fill: #213454;
      }

      .st4 {
        fill: #233555;
      }
    </style>
  </defs>
  <g>
    <path class="st3" d="M1243.68,54.06c9.95,8.91,9.43,28.23,1.08,36.91-4.77,4.96-11.21,7.26-18.92,7.26l-78.2-.03.15-58.38-.31-25.58,80.96.47c12.88.07,19.87,12.38,19.28,23.9-.29,5.6-.84,10.98-4.05,15.44ZM1233.33,37.5c-.5-5.47-3-8.61-7.78-8.65l-16.69-.14-46.21-.05-.15,18.92,65.22-.34c4.62-.02,5.94-6.16,5.61-9.74ZM1236.4,72.14c-.18-5.47-3.25-9.23-8.61-9.81l-65.22.05-.09,21.16,63.37.12c6.7.01,10.8-4.12,10.56-11.52Z"/>
    <path class="st3" d="M1367.05,98.23l-64.06-.38c-10.94-.07-21.22-10.45-21.2-21.26l.05-39.53c.02-12.14,10.74-20.83,22.34-22.62h62.43c10.49,1.8,20.46,9.27,21.55,20.31l.3,42.84c-2.85,10.55-10.34,18.12-21.42,20.64ZM1363.07,83.6c5.45,0,11.05-4.47,11.1-9.79l.29-33.13c.05-5.86-3.86-11.75-10.12-11.75h-36.34s-21.85-.06-21.85-.06c-4.99-.01-10.39,4.5-10.42,9.81l-.18,34.1c-.03,6.01,4.31,10.63,10.07,10.66l21.26.11,36.19.04Z"/>
    <path class="st3" d="M1556.86,98.11l-14.95.03v-26.42c.02-7.48,5.43-12.8,13.03-12.81l59.76-.1c5.96,0,10.56-3.94,10.52-10.05l-.07-10.04c-.04-5.08-3.96-9.35-9.31-9.39l-63.66-.42c-7.03-.05-10.87-7.52-10.28-14.59l76.65.38c9.63.05,17.66,8.21,20.29,16.53l1.04,13.44c.94,12.27-3.68,23.16-15.57,27.84l14.92,25.5-15.91.27-14.74-24.04-51.58-.67-.13,24.53Z"/>
    <path class="st3" d="M759.7,55.65l67.57,32.37c-1.3,5.62-7.44,12.69-13.81,9.71l-72.94-34.12-.27,34.68-14.73-.1.02-83.85h14.61s.4,33.8.4,33.8l72.74-33.77c6.75-.23,12.06,4.04,14.17,10.15l-67.76,31.12Z"/>
    <path class="st3" d="M869.23,73.38c-.03,5.42,4.5,10.06,9.67,10.06l65.67.1c8.19.01,13.45,6.04,13.67,14.58l-80.33-.14c-12.41-.02-23.34-10.92-23.26-23.17l.27-38.9c.07-10.58,11.08-21.14,22.06-21.2l81.61-.45c.26,4.95-1.59,8.24-3.85,10.87-2.83,3.28-6.57,3.47-10.86,3.5l-25.94.21-36.03-.21c-5.45-.03-12.42,3.19-12.46,9.05l-.23,35.7Z"/>
    <path class="st3" d="M350.29,98.11l.24-29.33c.04-5.49,5.82-9.66,11.47-9.68l63.66-.23c8.82-.03,11.66-7.5,11.55-15.15-.1-7.01-1.99-14.52-10.37-14.56l-65.59-.33c-7.31-.04-11.96-6.99-10.84-14.53l78.75.54c15.58.11,23.33,15.15,22.45,28.68-.58,8.81-.66,15.5-6.63,21.88-5.32,5.67-12.37,8.47-21.12,8.5l-58.48.17-.15,24.06-14.94-.02Z"/>
    <path class="st3" d="M607.32,74.35c.05,6.37,6.05,9.5,11.7,9.54l66.82.5c6.38.05,9.77,8.02,10.42,13.6l-76.34.39c-14.33.07-27.13-9.08-27.2-23.83l-.17-32.82c-.07-14.07,8.75-24.9,22.88-27.29l81.03-.07c.27,9.2-7.04,14.69-15.71,14.63l-18.34-.14-43.31-.12c-7.38-.02-12.12,5.86-12.06,12.99l.28,32.61Z"/>
    <path class="st3" d="M1468.58,33.97c-1.64-3.03-3.46-4.22-6.2-4.13s-3.63,2.19-4.99,4.73l-34.17,63.53-16.4-.17,40.44-75.8c3.29-6.17,10.89-8.08,16.91-7.72,6.32.37,12.87,3.54,16.25,9.85l36.57,68.24c.95,1.78,1.56,3.18,1.86,5.64l-15.5-.05-34.76-64.11Z"/>
    <path class="st3" d="M523.37,34.07c-1.35-2.48-2.32-3.7-4.56-4.1-1.72-.31-4.21.08-5.45,2.39l-35.33,65.6-16.7-.08,40.82-75.87c3.11-5.79,10.43-7.68,16.16-7.64,6,.04,12.82,2.91,16.05,8.88l36.48,67.29c1.31,2.42,2.32,4.41,2.74,7.49l-15.31.08-34.88-64.04Z"/>
    <path class="st3" d="M1746.62,42.44l14.88-.05-.46,35.05c-.15,11.44-10.74,20.58-22.32,20.56l-61.53-.09c-5.88,0-10.3-7.32-10.32-12.58l-.15-42.95c6.62-.54,14.36,2.03,14.51,8.4l.78,32.81,54.87-.11c5.26-.01,9.7-4.64,9.7-9.62l.04-31.42Z"/>
    <path class="st3" d="M1034.51,29.17l-.15,68.95-14.46.08-.11-69.35-30.9-.57c-6.3-.12-9.51-6.95-9.36-13.86l85.05.16c7.32.01,11.77,8.16,10.87,14.34l-20.59-.46-20.36.7Z"/>
    <path class="st1" d="M1745.4,33.47c-2.57-3.02-5.82-4.75-9.71-4.75l-55.83-.06c-8,0-13.38-5.66-12.75-14.41l75.15.39c10.7.06,18.4,8.66,18.97,18.6l-15.82.23Z"/>
    <path class="st3" d="M886.53,62.35c-5.4,0-8.62-6.46-7.13-14.43l68.34.46c6.88.05,10.39,8.31,10.37,13.87l-71.59.1Z"/>
  </g>
  <g>
    <path class="st4" d="M63.18.03c.97,2.01.78,4.72-.54,8.13,2.3,5.24,1.76,7.88-1.62,7.91l-19.1.18c-13.73,1.75-24.85,13.06-24.83,27.47l.06,59.98,71.23-.03c3.17-.21,5.55-3.77,8.42-5.04,3.52,2.15,7.04,7.19,4.78,11.74-1.73,3.48-7.34,9.35-11.82,9.38l-72.85.42-.29,64.17c-.26,15.83,10.94,27.97,26.81,29.42l75.64-.17.57-77.39c.03-3.86,5.33-5,7.74-5.02s7.88.94,7.9,4.6l.45,77.87,98.8-.03c16.37,0,27.78-13.41,27.72-29.2l-.24-60.18c-.02-5.55,2.85-8.65,7.71-9.09,3.46-.31,8.79,1.38,8.77,6.36l-.2,67.2c-.06,21.47-19.19,41.01-41.37,41.04l-192.21.25c-21.44.03-43.78-16.99-43.9-39.15L0,46.42C-.13,22.57,17.1,2.53,40.53.31L63.18.03Z"/>
    <path class="st4" d="M117.22,15.96c-1.24-2.13-1.19-4.94.16-8.42-1-3.12-.91-5.63.26-7.54l116.91.15c25.48.03,44.34,21.3,44.14,46.14l-.41,50.68c-.04,4.7-5.05,6.16-8.77,5.78-3.39-.35-7.47-2.59-7.48-7.18l-.05-50.7c-.02-14.99-11.59-28.72-27.43-28.74l-117.33-.17Z"/>
    <path class="st4" d="M135.49,84.97c-7.69,5.33-13.02,11.02-20.11,15.42l-9.51-1.58,8.49-15.61,20.76-17.04,42.56,33.1,48.75-40.45c3.21-2.66,6.65-3.65,10.04-.5l11.34,10.35c-2.78,3.01-6.34,7.31-10.41,8.63-1.88-1.12-5.26-4.44-7.82-2.32l-51.91,43.07-42.19-33.09Z"/>
    <path class="st0" d="M89.03,147.19c2.75,24.95-1.24,38.07-23.4,49.55-23.47-10.93-26.22-23.57-24.32-48.75,8.97-.37,16.29-5.86,24.04-8.47,7.34,1.9,14.54,8.21,23.68,7.67Z"/>
    <path class="st0" d="M243.35,202.11c-6.49,1.26-12.22.99-18.92-.01l-.2-65.28c5.94-1.98,12.41-1.74,18.87-.25l.25,65.54Z"/>
    <path class="st0" d="M117.64,0c3.54,4.34,3.18,10.69-.42,15.96l-56.21.11c2.73-2.61-5.34-6.99,2.16-16.04l54.46-.03Z"/>
    <path class="st0" d="M210.71,202.32c-6.73.82-12.25.78-18.86-.05l.03-43.97c6.37-1.61,12.33-1.23,18.69-.22l.14,44.25Z"/>
    <path class="st0" d="M178.37,201.89c-6.09,1.61-11.75.91-18.38.67-.9-8.13-.95-15.92.09-24.6,5.5-1.72,11.48-1.35,17.42-.41l.88,24.34Z"/>
  </g>
  <g>
    <path class="st2" d="M363.48,151.26l34.92,44.93v-45.29h7.63v57.67h-7.13l-34.92-44.93v45.29h-7.56v-57.67h7.06Z"/>
    <path class="st2" d="M459.31,151.26v6.7h-33.41v18.14h30.89v6.7h-30.89v19.44h34.06v6.7h-41.62v-57.67h40.97Z"/>
    <path class="st2" d="M494.52,158.03v50.9h-7.56v-50.9h-20.74v-6.77h48.96v6.77h-20.66Z"/>
    <path class="st2" d="M598.71,151.26l-17.57,57.67h-7.63l-13.9-46.01-13.97,46.01h-7.63l-17.5-57.67h7.85l13.68,46.22,13.61-46.22h8.06l13.68,46.37,13.68-46.37h7.63Z"/>
    <path class="st2" d="M617.39,206.34c-4.63-2.59-8.27-6.19-10.91-10.8-2.64-4.61-3.96-9.77-3.96-15.48s1.31-10.87,3.92-15.48,6.24-8.21,10.87-10.8c4.63-2.59,9.83-3.89,15.59-3.89s10.96,1.3,15.59,3.89,8.27,6.19,10.91,10.8,3.96,9.77,3.96,15.48-1.31,10.87-3.92,15.48-6.24,8.21-10.87,10.8c-4.63,2.59-9.83,3.89-15.59,3.89s-10.96-1.3-15.59-3.89ZM644.68,200.33c3.48-1.99,6.2-4.75,8.17-8.28,1.97-3.53,2.95-7.52,2.95-11.99s-.98-8.46-2.95-11.99c-1.97-3.53-4.69-6.29-8.17-8.28-3.48-1.99-7.41-2.99-11.77-2.99s-8.28,1-11.74,2.99c-3.46,1.99-6.17,4.75-8.14,8.28-1.97,3.53-2.95,7.52-2.95,11.99s.98,8.46,2.95,11.99c1.97,3.53,4.7,6.29,8.21,8.28,3.5,1.99,7.42,2.99,11.74,2.99s8.22-1,11.7-2.99Z"/>
    <path class="st2" d="M711.24,208.93l-13.1-20.52c-1.44.1-2.52.14-3.24.14h-14.04v20.38h-7.56v-57.67h21.6c4.8,0,8.94.76,12.42,2.27,3.48,1.51,6.13,3.67,7.96,6.48,1.82,2.81,2.74,6.11,2.74,9.9,0,4.08-1.06,7.58-3.17,10.51-2.11,2.93-5.16,5.09-9.14,6.48l14.47,22.03h-8.93ZM706.2,178.73c2.83-2.04,4.25-4.98,4.25-8.82s-1.42-6.78-4.25-8.82c-2.83-2.04-6.79-3.06-11.88-3.06h-13.46v23.76h13.46c5.09,0,9.05-1.02,11.88-3.06Z"/>
    <path class="st2" d="M746.16,183.23l-10.37,11.52v14.18h-7.56v-57.67h7.56v33.26l29.59-33.26h9.43l-23.76,26.5,25.42,31.18h-9.65l-20.66-25.7Z"/>
    <path class="st2" d="M836.88,152.09c3.36,1.46,6.05,3.52,8.06,6.16,2.02,2.64,3.14,5.62,3.38,8.93h-7.78c-.43-3.17-2-5.76-4.72-7.78-2.71-2.02-6.25-3.02-10.62-3.02s-7.88.83-10.4,2.48c-2.52,1.66-3.78,3.8-3.78,6.44,0,1.97.6,3.61,1.8,4.93,1.2,1.32,3.06,2.46,5.58,3.42,2.52.96,5.94,1.9,10.26,2.81,6.96,1.49,12.01,3.61,15.16,6.37,3.14,2.76,4.72,6.33,4.72,10.69,0,3.36-1.01,6.3-3.02,8.82-2.02,2.52-4.78,4.46-8.28,5.83s-7.39,2.05-11.66,2.05-8.46-.77-11.99-2.3c-3.53-1.54-6.35-3.7-8.46-6.48-2.11-2.78-3.29-6.02-3.53-9.72h7.78c.38,3.55,2.08,6.43,5.08,8.64,3,2.21,6.88,3.31,11.63,3.31,2.83,0,5.38-.41,7.63-1.22,2.25-.82,4.01-1.97,5.26-3.46,1.25-1.49,1.87-3.17,1.87-5.04,0-2.11-.6-3.86-1.8-5.26-1.2-1.39-3.06-2.58-5.58-3.56-2.52-.98-5.99-1.93-10.4-2.84-6.72-1.39-11.68-3.41-14.87-6.05-3.19-2.64-4.79-6.29-4.79-10.94,0-3.12.95-5.84,2.84-8.17,1.9-2.33,4.52-4.12,7.88-5.36,3.36-1.25,7.17-1.87,11.45-1.87s7.94.73,11.3,2.2Z"/>
    <path class="st2" d="M899.09,151.26v6.7h-33.41v18.14h30.89v6.7h-30.89v19.44h34.06v6.7h-41.62v-57.67h40.97Z"/>
    <path class="st2" d="M920.83,206.34c-4.61-2.59-8.22-6.19-10.84-10.8s-3.92-9.77-3.92-15.48,1.31-10.87,3.92-15.48,6.23-8.21,10.84-10.8c4.61-2.59,9.77-3.89,15.48-3.89,4.85,0,9.23.88,13.14,2.63s7.15,4.19,9.72,7.31c2.57,3.12,4.36,6.72,5.36,10.8h-7.7c-1.25-4.18-3.67-7.51-7.27-10.01-3.6-2.5-7.97-3.74-13.1-3.74-4.37,0-8.28,1-11.74,2.99-3.46,1.99-6.17,4.74-8.14,8.24-1.97,3.5-2.95,7.49-2.95,11.95s.98,8.39,2.95,11.92c1.97,3.53,4.69,6.29,8.17,8.28,3.48,1.99,7.38,2.99,11.7,2.99,3.5,0,6.72-.64,9.65-1.91,2.93-1.27,5.36-3.01,7.31-5.22,1.94-2.21,3.28-4.68,4-7.42h7.7c-.86,4.03-2.6,7.68-5.22,10.94-2.62,3.26-5.96,5.84-10.04,7.74-4.08,1.9-8.59,2.84-13.54,2.84-5.71,0-10.87-1.3-15.48-3.89Z"/>
    <path class="st2" d="M981.53,151.26v32.83c0,3.84.71,7.21,2.12,10.12,1.42,2.91,3.46,5.16,6.12,6.77,2.66,1.61,5.8,2.41,9.4,2.41s6.72-.8,9.36-2.41c2.64-1.61,4.67-3.86,6.08-6.77,1.42-2.9,2.12-6.28,2.12-10.12v-32.83h7.56v32.83c0,5.23-1.03,9.83-3.1,13.79-2.06,3.96-4.99,7.02-8.78,9.18-3.79,2.16-8.21,3.24-13.25,3.24s-9.47-1.08-13.28-3.24c-3.82-2.16-6.76-5.22-8.82-9.18-2.06-3.96-3.1-8.56-3.1-13.79v-32.83h7.56Z"/>
    <path class="st2" d="M1073.83,208.93l-13.1-20.52c-1.44.1-2.52.14-3.24.14h-14.04v20.38h-7.56v-57.67h21.6c4.8,0,8.94.76,12.42,2.27,3.48,1.51,6.13,3.67,7.96,6.48,1.82,2.81,2.74,6.11,2.74,9.9,0,4.08-1.06,7.58-3.17,10.51-2.11,2.93-5.16,5.09-9.14,6.48l14.47,22.03h-8.93ZM1068.79,178.73c2.83-2.04,4.25-4.98,4.25-8.82s-1.42-6.78-4.25-8.82c-2.83-2.04-6.79-3.06-11.88-3.06h-13.46v23.76h13.46c5.09,0,9.05-1.02,11.88-3.06Z"/>
    <path class="st2" d="M1098.38,208.93h-7.56v-57.67h7.56v57.67Z"/>
    <path class="st2" d="M1135.61,158.03v50.9h-7.56v-50.9h-20.74v-6.77h48.96v6.77h-20.66Z"/>
    <path class="st2" d="M1192.05,189.63v19.3h-7.63v-19.3l-22.61-38.38h8.57l18.14,31.32,18.72-31.32h8.14l-23.33,38.38Z"/>
    <path class="st2" d="M1251.16,202.09h31.68v6.84h-39.24v-57.67h7.56v50.83Z"/>
    <path class="st2" d="M1301.02,206.34c-4.63-2.59-8.27-6.19-10.91-10.8-2.64-4.61-3.96-9.77-3.96-15.48s1.31-10.87,3.92-15.48,6.24-8.21,10.87-10.8c4.63-2.59,9.83-3.89,15.59-3.89s10.96,1.3,15.59,3.89,8.27,6.19,10.91,10.8,3.96,9.77,3.96,15.48-1.31,10.87-3.92,15.48-6.24,8.21-10.87,10.8c-4.63,2.59-9.83,3.89-15.59,3.89s-10.96-1.3-15.59-3.89ZM1328.31,200.33c3.48-1.99,6.2-4.75,8.17-8.28,1.97-3.53,2.95-7.52,2.95-11.99s-.98-8.46-2.95-11.99c-1.97-3.53-4.69-6.29-8.17-8.28-3.48-1.99-7.41-2.99-11.77-2.99s-8.28,1-11.74,2.99c-3.46,1.99-6.17,4.75-8.14,8.28-1.97,3.53-2.95,7.52-2.95,11.99s.98,8.46,2.95,11.99c1.97,3.53,4.7,6.29,8.21,8.28,3.5,1.99,7.42,2.99,11.74,2.99s8.22-1,11.7-2.99Z"/>
    <path class="st2" d="M1368.92,206.34c-4.58-2.59-8.17-6.18-10.76-10.76-2.59-4.58-3.89-9.76-3.89-15.52s1.3-10.93,3.89-15.52c2.59-4.58,6.18-8.17,10.76-10.76s9.78-3.89,15.59-3.89c4.75,0,9.13.85,13.14,2.56,4.01,1.7,7.36,4.04,10.04,7.02,2.69,2.98,4.54,6.31,5.54,10.01h-8.21c-.77-2.4-2.15-4.56-4.14-6.48-1.99-1.92-4.39-3.43-7.2-4.54-2.81-1.1-5.82-1.66-9.04-1.66-4.37,0-8.29,1-11.77,2.99-3.48,1.99-6.19,4.75-8.14,8.28-1.94,3.53-2.92,7.52-2.92,11.99s.97,8.49,2.92,12.06c1.94,3.58,4.67,6.36,8.17,8.35,3.5,1.99,7.46,2.99,11.88,2.99,3.89,0,7.4-.79,10.55-2.38s5.68-3.75,7.6-6.52c1.92-2.76,3.02-5.87,3.31-9.32h-22.97v-6.55h31.03v2.59c0,5.57-1.31,10.55-3.92,14.94-2.62,4.39-6.19,7.82-10.73,10.3-4.54,2.47-9.59,3.71-15.16,3.71s-11-1.3-15.59-3.89Z"/>
  </g>
</svg>