<?xml version="1.0" encoding="UTF-8"?>
<svg id="_레이어_1" data-name="레이어_1" xmlns="http://www.w3.org/2000/svg" version="1.1" viewBox="0 0 327.15 36.36">
  <!-- Generator: Adobe Illustrator 30.5.1, SVG Export Plug-In . SVG Version: 2.1.4 Build 3)  -->
  <defs>
    <style>
      .st0 {
        fill: #fff;
      }

      .st1 {
        fill: #1c2d45;
      }

      .st2 {
        fill: #3e6ab3;
      }

      .st3 {
        fill: #495462;
      }
    </style>
  </defs>
  <g>
    <path class="st3" d="M5.11,10.78c1.22,0,2.28.21,3.18.62.89.41,1.58,1,2.05,1.76.47.76.71,1.63.71,2.63s-.24,1.87-.71,2.63c-.47.76-1.16,1.34-2.05,1.75s-1.95.62-3.18.62H1.89v4.41H0v-14.42h5.11ZM8.06,18.22c.74-.57,1.11-1.38,1.11-2.44s-.37-1.87-1.11-2.44-1.77-.85-3.09-.85H1.89v6.59h3.08c1.32,0,2.35-.29,3.09-.85Z"/>
    <path class="st3" d="M20.39,15.35c.8.47,1.43,1.11,1.88,1.94.45.82.68,1.74.68,2.76s-.23,1.94-.68,2.76c-.45.82-1.08,1.47-1.88,1.93-.8.47-1.7.7-2.7.7s-1.91-.23-2.71-.7c-.8-.47-1.42-1.11-1.88-1.93s-.68-1.74-.68-2.76.23-1.94.68-2.76c.46-.82,1.08-1.47,1.88-1.94.8-.47,1.7-.7,2.71-.7s1.9.23,2.7.7ZM15.9,16.78c-.52.33-.93.78-1.22,1.35s-.44,1.21-.44,1.92.15,1.35.44,1.92c.29.57.7,1.02,1.22,1.35s1.12.5,1.79.5,1.25-.17,1.78-.5c.53-.33.94-.78,1.22-1.35.29-.57.43-1.21.43-1.92s-.14-1.35-.43-1.92c-.29-.57-.7-1.02-1.22-1.35-.53-.33-1.12-.5-1.78-.5s-1.27.17-1.79.5Z"/>
    <path class="st3" d="M40.32,14.9l-3.64,10.3h-1.87l-2.72-7.88-2.7,7.88h-1.87l-3.64-10.3h1.93l2.7,7.99,2.68-7.99h1.87l2.7,8.05,2.72-8.05h1.84Z"/>
    <path class="st3" d="M43.59,24.74c-.79-.47-1.4-1.11-1.85-1.93s-.67-1.74-.67-2.76.22-1.94.67-2.76c.44-.82,1.06-1.47,1.85-1.94.79-.47,1.67-.7,2.65-.7s1.87.23,2.65.7c.79.47,1.4,1.11,1.84,1.94.44.82.66,1.74.66,2.76,0,.34-.01.59-.04.76h-8.42c.1.9.45,1.64,1.05,2.21.61.58,1.36.86,2.26.86.68,0,1.29-.14,1.81-.42.52-.28.88-.64,1.07-1.07h1.89c-.29.9-.86,1.63-1.73,2.21-.86.57-1.88.85-3.04.85-.98,0-1.87-.23-2.65-.7ZM48.51,17.07c-.6-.57-1.36-.85-2.27-.85s-1.67.29-2.27.85-.95,1.31-1.04,2.22h6.64c-.11-.91-.46-1.65-1.06-2.22Z"/>
    <path class="st3" d="M55.6,14.9v1.58c.28-.47.73-.89,1.38-1.27.64-.38,1.42-.57,2.33-.57.59,0,1.06.06,1.4.18v1.76c-.42-.19-.93-.29-1.53-.29-.68,0-1.3.17-1.85.5s-.97.77-1.28,1.31-.46,1.13-.46,1.75v5.33h-1.85v-10.3h1.85Z"/>
    <path class="st3" d="M63.98,24.74c-.79-.47-1.4-1.11-1.85-1.93s-.67-1.74-.67-2.76.22-1.94.67-2.76c.44-.82,1.06-1.47,1.85-1.94.79-.47,1.67-.7,2.65-.7s1.87.23,2.65.7c.79.47,1.4,1.11,1.84,1.94.44.82.66,1.74.66,2.76,0,.34-.01.59-.04.76h-8.42c.1.9.45,1.64,1.05,2.21.61.58,1.36.86,2.26.86.68,0,1.29-.14,1.81-.42.52-.28.88-.64,1.07-1.07h1.89c-.29.9-.86,1.63-1.73,2.21-.86.57-1.88.85-3.04.85-.98,0-1.87-.23-2.65-.7ZM68.9,17.07c-.6-.57-1.36-.85-2.27-.85s-1.67.29-2.27.85-.95,1.31-1.04,2.22h6.64c-.11-.91-.46-1.65-1.06-2.22Z"/>
    <path class="st3" d="M76.1,24.74c-.77-.47-1.38-1.12-1.83-1.94s-.67-1.75-.67-2.75.22-1.93.67-2.75c.44-.83,1.05-1.48,1.83-1.94.77-.47,1.64-.7,2.6-.7.88,0,1.63.17,2.27.52.64.35,1.1.77,1.39,1.26v-6.1h1.85v14.87h-1.85v-1.53c-.29.49-.75.91-1.39,1.26-.64.35-1.39.52-2.27.52-.96,0-1.83-.23-2.6-.7ZM80.69,23.31c.53-.33.95-.78,1.25-1.35.3-.57.45-1.21.45-1.92s-.15-1.35-.45-1.92-.72-1.02-1.25-1.35c-.53-.33-1.14-.5-1.83-.5s-1.27.16-1.79.49c-.52.32-.93.77-1.21,1.35-.29.58-.43,1.22-.43,1.93s.14,1.35.43,1.93.69,1.03,1.21,1.35,1.12.49,1.79.49,1.29-.17,1.83-.5Z"/>
    <path class="st3" d="M95.4,24.92c-.64-.35-1.1-.77-1.39-1.26v1.53h-1.85v-14.87h1.85v6.1c.29-.49.75-.91,1.39-1.26.64-.35,1.39-.52,2.27-.52.96,0,1.83.23,2.6.7.77.47,1.38,1.12,1.83,1.94.44.83.67,1.75.67,2.75s-.22,1.93-.67,2.75c-.44.83-1.05,1.48-1.83,1.94-.77.47-1.64.7-2.6.7-.88,0-1.63-.17-2.27-.52ZM99.3,23.32c.52-.32.93-.77,1.21-1.35s.43-1.22.43-1.93-.14-1.35-.43-1.93c-.29-.58-.69-1.03-1.21-1.35-.52-.32-1.12-.49-1.79-.49s-1.29.17-1.83.5c-.53.33-.95.78-1.25,1.35-.3.57-.45,1.21-.45,1.92s.15,1.35.45,1.92c.3.57.72,1.02,1.25,1.35.53.33,1.14.5,1.83.5s1.27-.16,1.79-.49Z"/>
    <path class="st3" d="M114.19,14.9l-6.43,14.67h-1.87l2.03-4.59-4.41-10.08h2.03l3.31,8.1,3.4-8.1h1.93Z"/>
  </g>
  <g>
    <polygon class="st1" points="138.76 36.36 136.32 34.42 149.37 23.53 149.38 17.64 152.36 17.63 152.36 25.1 138.76 36.36"/>
    <polygon class="st2" points="149.4 15.31 149.38 8.92 140.06 3.93 140.03 .38 152.35 6.98 152.36 15.28 149.4 15.31"/>
    <g>
      <path class="st1" d="M124.22,17.66l2.98-.03.07,5.53,7.21,5.85,8.14-6.8v-4.26c-1.35-.99-1.61-2.89-.47-4.12,1.04-1.13,2.93-1.16,4.01.02s.92,3.18-.58,4.13l-.03,5.81-11.01,9.16-10.31-8.19v-7.1Z"/>
      <circle class="st0" cx="144.16" cy="15.69" r="1.09"/>
    </g>
    <g>
      <path class="st1" d="M134.81,5.05l-7.6,3.91v6.34s-2.99.03-2.99.03V6.98s13.52-6.98,13.52-6.98v18.89c.89,1.44.48,3.21-.92,3.98s-3.18.18-3.82-1.26c-.67-1.52.09-3.31,1.8-3.84V5.05Z"/>
      <circle class="st0" cx="135.49" cy="20.46" r="1.1"/>
    </g>
  </g>
  <g>
    <path class="st1" d="M197.85,26.47l-16.37.06c.14-1.44,1.06-3.13,2.64-3.14l12.75-.08c.81,0,1.59-.54,1.58-1.37l-.02-2.39c0-.83-.76-1.25-1.56-1.25h-11.05c-2.3.02-4.31-1.55-4.3-3.9v-3.72c0-1.99,1.83-3.81,3.94-3.81l16.19-.03c-.1,1.42-.93,3.07-2.37,3.09l-12.96.12c-.91,0-1.54.57-1.53,1.51l.02,2.22c0,.79.65,1.39,1.45,1.39h11.27c2.08,0,3.84,1.38,4.11,3.49.18,1.37.17,2.75.02,4.16-.2,1.96-1.69,3.65-3.82,3.65Z"/>
    <path class="st1" d="M288.2,26.68h-3.22s.06-8.7.06-8.7c.01-1.39,1.4-2.41,2.77-2.41l11.68-.03c.94,0,1.74-.64,1.74-1.58v-2.12c-.01-.76-.7-1.4-1.52-1.4h-11.69c-1.8,0-3.17-1.2-3.09-3.2l15.37.07c2.18,0,3.87,1.88,4.12,3.88v3.38c0,2.69-2.41,4.4-5.33,4.07l5.95,8.04-3.94.04-6.04-8.06h-6.88s-.01,8.04-.01,8.04Z"/>
    <path class="st1" d="M275.96,6.86l3.24-.02v12.88c0,3.96-3.16,6.8-7.06,6.81l-6.63.02c-3.86.01-7-2.91-7-6.82V6.84s3.22,0,3.22,0l.04,12.9c0,2.04,1.73,3.63,3.74,3.62l6.87-.03c1.93,0,3.54-1.64,3.54-3.6l.04-12.87Z"/>
    <path class="st1" d="M239.82,23.43l11.32.1c1.51.01,2.33,1.67,2.45,3.11l-14.59-.07c-3.14-.01-5.77-2.96-5.76-6.03l.02-7.77c0-3.18,2.85-5.89,6.04-5.9l14.31-.04c-.13,1.56-1.13,3.11-2.67,3.12l-11.02.07c-1.76.01-3.35,1.25-3.37,3.12l-.05,6.83c-.01,1.82,1.41,3.45,3.32,3.47Z"/>
    <polygon class="st1" points="228.78 6.91 218.74 18.07 218.71 26.46 215.42 26.51 215.42 18.16 205.35 6.88 209.61 6.82 217.02 15.14 224.56 6.84 228.78 6.91"/>
    <path class="st1" d="M159.07,26.5c.05-1.4,1.06-3.14,2.72-3.17l8.56-.11c1.35-.02,2.16-1.33,2.16-2.61l-.02-13.79h3.36s-.12,14.78-.12,14.78c-.02,2.78-2.3,4.67-4.94,4.87l-11.72.02Z"/>
    <g>
      <path class="st1" d="M314.2,23.59h12.94s0,3.12,0,3.12l-13.73.02c-1.8,0-3.27-1.19-3.28-3.05l-.02-5.29c0-1.59,1.24-2.85,2.86-2.85l14.13-.02v3.1s-13.68.03-13.68.03l-.11,3.97c-.01.36.31.97.89.97Z"/>
      <path class="st2" d="M327.1,10.46l-14.34-.04c-1.63,0-2.68-1.49-2.66-3.15h17.05s-.05,3.19-.05,3.19Z"/>
    </g>
  </g>
</svg>